<svg xmlns="http://www.w3.org/2000/svg" width="21" height="21" fill="none"><path fill="#172328" d="M3 19.085h8.75a.642.642 0 0 0 .625-.625v-2.5h1.875v2.5c0 1.406-1.133 2.5-2.5 2.5H3a2.468 2.468 0 0 1-2.5-2.5V9.71c0-1.367 1.094-2.5 2.5-2.5h2.5v1.875H3a.642.642 0 0 0-.625.625v8.75c0 .351.273.625.625.625ZM6.75 3.46c0-1.367 1.094-2.5 2.5-2.5H18c1.367 0 2.5 1.133 2.5 2.5v8.75c0 1.406-1.133 2.5-2.5 2.5H9.25a2.468 2.468 0 0 1-2.5-2.5V3.46Zm2.5 9.375H18a.642.642 0 0 0 .625-.625V3.46c0-.313-.313-.625-.625-.625H9.25a.642.642 0 0 0-.625.625v8.75c0 .351.273.625.625.625Z"/></svg>