<svg width="20" height="21" viewBox="0 0 20 21" fill="none" xmlns="http://www.w3.org/2000/svg">
<path d="M17.9441 6.88609C17.9568 7.06375 17.9568 7.24145 17.9568 7.4191C17.9568 12.8379 13.8325 19.0815 6.29441 19.0815C3.97207 19.0815 1.81473 18.4089 0 17.2414C0.329961 17.2795 0.647187 17.2922 0.989844 17.2922C2.90605 17.2922 4.67004 16.645 6.07867 15.5409C4.27664 15.5029 2.76648 14.3227 2.24617 12.6983C2.5 12.7363 2.75379 12.7617 3.02031 12.7617C3.38832 12.7617 3.75637 12.7109 4.09898 12.6221C2.22082 12.2414 0.812148 10.5917 0.812148 8.5993V8.54855C1.35781 8.85312 1.99238 9.04348 2.66492 9.06883C1.56086 8.33277 0.837539 7.07645 0.837539 5.65512C0.837539 4.89371 1.04055 4.19574 1.3959 3.5866C3.41367 6.07391 6.44668 7.69824 9.84766 7.87594C9.78422 7.57137 9.74613 7.25414 9.74613 6.93688C9.74613 4.67797 11.5736 2.83789 13.8451 2.83789C15.0253 2.83789 16.0913 3.33281 16.84 4.1323C17.7664 3.95465 18.6547 3.61199 19.4416 3.14246C19.137 4.09426 18.4898 4.89375 17.6395 5.40133C18.4644 5.31254 19.2639 5.08406 19.9999 4.76684C19.4416 5.57898 18.7436 6.3023 17.9441 6.88609Z" fill="#26A0BE"/>
</svg>
