<svg xmlns="http://www.w3.org/2000/svg" width="21" height="21" fill="none"><path fill="#172328" d="M15.07 1.937a2.782 2.782 0 0 1 3.946 0l.507.507a2.782 2.782 0 0 1 0 3.946l-7.734 7.734a2.687 2.687 0 0 1-1.21.703L6.671 15.96a.886.886 0 0 1-.899-.274c-.273-.234-.351-.585-.273-.898l1.133-3.906c.117-.469.39-.899.703-1.211l7.734-7.734Zm2.617 1.328a.92.92 0 0 0-1.289 0l-1.171 1.132 1.835 1.836 1.133-1.171a.92.92 0 0 0 0-1.29l-.508-.507ZM8.43 11.39l-.664 2.304 2.304-.664a.81.81 0 0 0 .39-.234l5.274-5.274-1.796-1.796-5.274 5.273a.81.81 0 0 0-.234.39Zm-.117-7.93a.95.95 0 0 1 .937.937c0 .547-.43.938-.938.938H3.939c-.899 0-1.563.703-1.563 1.562v10.626c0 .898.664 1.562 1.563 1.562h10.624c.86 0 1.563-.664 1.563-1.563v-4.374c0-.508.39-.938.938-.938a.95.95 0 0 1 .937.938v4.375a3.443 3.443 0 0 1-3.438 3.437H3.938A3.418 3.418 0 0 1 .5 17.522V6.898A3.443 3.443 0 0 1 3.938 3.46h4.374Z"/></svg>