<svg xmlns="http://www.w3.org/2000/svg" width="940" height="475" fill="none"><path fill="#172328" d="M566.139 289.709c-22.3 28.58-47.13 54.34-77.84 73.84a37.82 37.82 0 0 1-13.22 5.66c-6.77 1.28-10.07-1.589-9.2-8.51.93-7.4 5.1-13.44 9.08-19.47 10.35-15.67 18.85-32.23 24.37-50.23 2.78-9.09 4.61-18.289 3.93-27.86-.75-10.64-7-14.65-16.88-10.41-12.6 5.42-21.85 15.52-32.33 23.88-16.16 12.9-32.09 26.11-49.94 36.69-5.72 3.39-11.59 6.45-18.23 7.66-7.26 1.34-12-1.74-14-8.85-2.11-7.27-.49-14.369.69-21.47 2.85-17.08 9.71-33.12 13.11-50.07.87-4.32 2.07-8.61 1.91-13.08-.07-1.78.15-3.79-1.71-4.85-2.13-1.22-4 0-5.46 1.32-5.89 5.44-12 10.67-17.4 16.61-26 28.8-50.6 58.7-68.19 93.65-4.5 8.95-7.42 18.67-13.21 27-2.42 3.5-5.1 6.72-8.81 8.92-5.43 3.21-12 3.31-15.16-.15-4.13-4.54-3.33-9.76-.68-14.58a57.38 57.38 0 0 1 15.49-18.22c19.51-14.8 33.3-34.64 47.64-54 17.23-23.22 34.27-46.57 51.67-69.66 7.63-10.12 16.38-19.33 27.17-26.2 3.93-2.5 8.34-6.25 13.23-2.84 4.89 3.41 4.56 9 4.08 14.3-.78 8.64-3.4 16.91-5 25.39-1.51 8.05-3.83 16.09-2.29 24.41 1.62 8.75 5.9 11.11 14.27 7.84 5.64-2.2 10.53-5.75 15.41-9.31 14.76-10.76 26.41-24.62 38-38.46 29.5-35.24 59.45-70.1 89.51-104.87 14.82-17.15 29.25-34.67 40.53-54.53 3.91-6.88 9.32-12.62 17.07-15.48 3.39-1.26 6.79-1.53 9.4 1.57 2.61 3.1 1 6.09-.62 8.93a29.335 29.335 0 0 1-8.07 8.85c-23.62 17.94-41.84 40.92-59.77 64.11-15.13 19.56-29.2 39.86-38.6 63-2.88 7.1-5.13 14.36-4.66 22.21.47 7.68 4.8 10.8 12.22 8.38 10.12-3.31 17.73-10.19 24-18.45 8.84-11.68 17.15-23.77 25.87-35.54 7.59-10.25 16.25-19.37 28-25a40.163 40.163 0 0 1 15.1-3.77c10-.59 14.53 6.08 10.51 15.24-2.21 5-5.61 9.28-9.13 13.4-11.39 13.29-24.22 25.14-37.3 36.72-32.07 28.43-56.25 62.57-73.81 101.57a42.033 42.033 0 0 0-3.77 13.27c-.613 6.347 2.267 8.967 8.64 7.86 7.86-1.38 14.72-5.21 21.38-9.36 8.12-5.11 15.47-11.23 23-17.06ZM121.229 316.789c1-10.94 4.55-22.83 10-34.14 13.54-28.32 32.1-53.35 52.54-76.85 38.05-43.8 75.48-88.07 106.63-137.25 3.86-6.1 7.63-12.28 11.8-18.17A24.82 24.82 0 0 1 317.939 40c8.58-1.71 15.14 4.17 14.5 12.86-.53 7.07-4.69 12.26-9.25 17.14-6.35 6.8-14 12.09-21.76 17-18.67 11.83-32.56 28.29-45.87 45.56-21.43 27.83-43.56 55.13-64 83.72-6 8.42-10.55 17.5-12.49 27.78-.71 3.75-.91 7.44 2.32 9.95 3 2.37 6.6 1.23 9.76-.13 10.76-4.59 19.31-12.21 27.06-20.69 32-35 62.22-71.43 89.27-110.43a58.034 58.034 0 0 1 12.15-13.28c2.57-2 5.68-3.87 8.61-.78 2.7 2.86.61 5.64-1.07 8.14-4.21 6.29-11 10-16 15.43-18.36 19.95-33.94 41.68-41.67 68.14-1.52 5.22-1.82 10.68 3 14.39 4.82 3.71 9.88 2.07 14.8-.23 14.23-6.64 25.93-16.81 37.28-27.28 24.93-23 46.7-48.61 63.3-78.39 2.63-4.72 6-9 9.05-13.49a19.826 19.826 0 0 1 2.34-2.75c6.38-6.45 14.46-7.78 19.27-3.21 4.63 4.4 3.94 12.22-1.43 19.11-5 6.39-11 11.73-17 17-28.85 25-52.71 53.92-70.48 87.76-16.9 32.21-40.07 60.05-61.69 89-28.72 38.46-58.92 75.68-88.92 113.15-10.07 12.59-17.67 26.8-25.83 40.62-3.52 6-7.82 11.26-13.82 14.81-4.58 2.71-9.8 5.18-14.35.52-4.39-4.48-1.78-9.47.9-13.8 4.82-7.78 11.75-13.76 18.55-19.65 30.91-26.78 55.87-58.63 79.13-92 13.91-19.93 27.29-40.2 38.22-62a76.142 76.142 0 0 0 7.11-19.14c.31-1.58.73-3.37-.73-4.49-1.86-1.43-3.48 0-4.82 1.12a127.355 127.355 0 0 0-12.36 11.54c-7.54 8.37-15.55 16.27-25 22.5-3.7 2.45-7.83 5-12.22 1.76-4.67-3.41-4.2-8.45-2.62-13.17 1.58-4.72 3.83-9.26 5.77-13.88.93-2.22 2-4.4 2.7-6.68.52-1.7 1-3.92-.57-5.1-1.94-1.42-3.42.65-4.54 1.8-7 7.18-13.85 14.51-20.77 21.76-14.12 14.78-26.93 30.93-44.4 42.17a56.745 56.745 0 0 1-11.74 6.07c-11.07 3.951-16.61-.04-16.4-13.44ZM587.019 267.219c3.57-6.08 8.43-10.56 12.69-15.48 15.81-18.3 32.94-35.14 53.89-47.63 5.25-3.12 10.83-5.29 17-5.46 7.91-.21 10.82 3.9 7.48 11.11-4.75 10.28-12.09 18.9-18.82 27.9-2.4 3.2-4.683 6.494-6.85 9.88-1 1.5-1.72 3.37-.48 5.09 1.41 1.95 3.62 1.71 5.52 1.13 5.64-1.7 10.59-4.77 15.29-8.25 24.27-18 43-40.79 57.63-67.07 8.3-14.88 15.91-30.24 28.34-42.38 5.62-5.49 11.31-10.84 18.71-13.91 5.42-2.25 10.64-2.55 15 2.15 4.36 4.7 5.71 10.06 3.48 16.14-2.87 7.79-8.82 13.41-14.29 19.2-18.61 19.67-32.36 42.24-38.09 68.68-6 27.5-20.75 49.2-40 68.68-20.83 21.15-41.5 42.47-62.5 63.52-11.52 11.58-22.15 23.76-30 38.22a90.363 90.363 0 0 1-7.34 11 19.993 19.993 0 0 1-13.48 8.26c-3.57.49-7-.25-9-3.52-2.15-3.55.39-6.41 2.73-8.39 6.57-5.56 13.72-10.45 20.24-16.08 14.05-12.11 25-27.12 37.23-40.91 20.63-23.27 41.31-46.53 59.75-71.63a125.499 125.499 0 0 0 12.22-19.31 27.676 27.676 0 0 0 2.95-14c-.14-2.38-.14-5.11-2.82-6.17-2.33-.91-4.24.68-6 2.08-6.59 5.32-12 11.83-17.55 18.14-9.2 10.4-18.78 20.38-30.8 27.63-5.73 3.46-11.67 6.19-18.61 6.13-10.51-.08-17.46-8.05-16.19-18.55 1-8.18 5.32-15.08 8.31-22.49 1.1-2.73 3.23-5.7.62-8.38-2.61-2.68-5.75-.92-8.48.1-12.21 4.61-22.42 12.36-32.22 20.76-1.56 1.37-2.56 3.59-5.56 3.81ZM715.019 354.389c-.28-8.59 2.54-16.16 7.46-23.06 22.54-31.54 46.54-61.91 70.2-92.61 32.42-42.14 67.27-82.44 96.38-127.1 7.1-10.9 13-22.66 22.73-31.71 3.42-3.18 7-6 11.55-7.4 7.8-2.44 14.16 1.16 15.89 9.18 1.73 8.02-1.13 14.61-6 20.64a41.62 41.62 0 0 1-14 11.26c-19.53 9.62-35 24.1-48.56 40.68-31.54 38.5-63.19 76.94-90.14 118.92-8.9 13.87-17 28.16-23.39 43.41a32.237 32.237 0 0 0-3 11.6c-.06 2.52-.9 5.62 2 7 2.66 1.31 5-.579 7.16-2a53.176 53.176 0 0 0 15.28-16.83c21.58-35.75 46.83-69.14 67.46-105.49 3-5.29 6.52-10.18 11.76-13.47 2.75-1.72 5.8-3.31 8.89-.75 3.09 2.56 2.89 6 1.72 9.38a21.714 21.714 0 0 1-6.68 9.86c-23.72 20-40.26 45.6-56.18 71.69-10.78 17.7-19.53 36.41-27.43 55.53-5.06 12.35-11.31 24.001-22.54 32.08-4.44 3.201-9.06 6.071-14.53 6.94-13.46 2.131-23.82-6.92-25.73-22.35-.22-1.79-.19-3.6-.3-5.4ZM.02 354.389c-.28-8.59 2.54-16.16 7.46-23.06 22.54-31.54 46.54-61.91 70.2-92.61 32.419-42.14 67.269-82.44 96.379-127.1 7.1-10.9 13-22.66 22.73-31.71 3.42-3.18 7-6 11.55-7.4 7.8-2.44 14.16 1.16 15.89 9.18 1.73 8.02-1.13 14.61-6 20.64a41.62 41.62 0 0 1-14 11.26c-19.53 9.62-35 24.1-48.56 40.68-31.54 38.5-63.19 76.94-90.14 118.92-8.9 13.87-17 28.16-23.39 43.41a32.233 32.233 0 0 0-3 11.6c-.06 2.52-.9 5.62 2 7 2.66 1.31 5-.579 7.16-2a53.181 53.181 0 0 0 15.28-16.83c21.58-35.75 46.83-69.14 67.46-105.49 3-5.29 6.52-10.18 11.76-13.47 2.75-1.72 5.8-3.31 8.89-.75 3.09 2.56 2.89 6 1.72 9.38a21.714 21.714 0 0 1-6.68 9.86c-23.72 20-40.26 45.6-56.18 71.69-10.78 17.7-19.53 36.41-27.43 55.53-5.06 12.35-11.31 24.001-22.54 32.08-4.44 3.201-9.06 6.071-14.53 6.94-13.46 2.131-23.82-6.92-25.73-22.35-.22-1.79-.19-3.6-.3-5.4Z"/><path fill="#172328" d="M671.31 195.839c-5.11 0-7.68-2.53-8.61-6.7-.66-2.93-.8-6-1.33-8.93-1-5.41-3.18-6.46-7.85-3.42a103.741 103.741 0 0 0-17 14.31c-17.7 18-37.08 34.45-51.35 55.64a24.573 24.573 0 0 1-9.38 8.32c-2.75 1.38-5.71 2.8-8.29 0-2.58-2.8-1.43-6.1.44-8.83a48.497 48.497 0 0 1 11.49-11.42c36.43-26.76 64.73-60.86 89.17-98.47 3.93-6 7.44-12.4 12.87-17.35 8.34-7.6 16.07-5.79 19.54 4.94 1 3.23 2.32 3.5 4.53 1.67 4.31-3.59 8.83-7 12.65-11.09 28.55-30.5 54.82-62.9 79.71-96.43 3.11-4.19 5.89-8.64 9.87-12.1a31.78 31.78 0 0 1 5.74-4.23c5.42-2.88 10.46-2.12 13 1.66 2.54 3.78 1.07 9.26-3.89 13.06-4.96 3.8-11.66 5.17-16.68 9.47-16.43 14.06-29.25 31.32-42.33 48.32a1042.15 1042.15 0 0 0-59.29 85.56 214.6 214.6 0 0 1-18.91 26.41c-3.9 4.57-8.06 9.06-14.1 9.61ZM433.419 206.999c.37-5.54 3.31-10.51 7.31-14.89 13.82-15.1 27.73-30.12 41.55-45.22a229.221 229.221 0 0 0 34.21-47.89c3.55-6.74 7.06-13.57 12.91-18.75 3.12-2.77 6.56-5.32 10.76-2.75 4.4 2.7 4.84 7.11 3.51 11.74-2.27 7.93-8 13.4-13.92 18.51a336.472 336.472 0 0 0-70.66 85.51c-2.72 4.67-6 9-9.17 13.41a19.461 19.461 0 0 1-7.75 6.55c-5.24 2.42-8.72.17-8.75-6.22ZM430.019 332.649c.06 5.49-2.26 10.12-5.29 14.46a45.28 45.28 0 0 1-11.73 12c-27.21 18.28-46.29 43.51-61.84 71.82-2.61 4.74-5.06 9.65-9.4 13.14-2.72 2.19-5.78 4.36-9.22 1.93-3.44-2.43-2.36-6.05-1.1-9.31a34.334 34.334 0 0 1 8-11.91c25.5-25.5 48.17-53.25 66.83-84.18a56.276 56.276 0 0 1 11.51-13.83c2.41-2.07 5-4.57 8.55-3 3.8 1.74 3.69 5.44 3.69 8.88ZM54.53 215.829c-3.71.1-5.38-1.63-6.23-4.41-1.14-3.7-.25-7.17 1.29-10.49a105.799 105.799 0 0 1 18.66-27.82 21.2 21.2 0 0 1 5.77-4.26c7-3.58 13.64.66 13.56 8.46-.13 13-18.63 35.66-31.26 38.27-.593.114-1.19.198-1.79.25ZM770.829 206.219a35.038 35.038 0 0 1 2-6.18c4.81-9.72 10.57-18.84 18.14-26.69a27.129 27.129 0 0 1 5.65-4.35c3.08-1.83 6.42-2.52 9.61-.27 3.19 2.25 4.35 5.65 4.06 9.47-1 12.86-17.29 33.09-29.66 36.93-6.51 2.03-10.08-.72-9.8-8.91ZM111.899 364.819c.12 10.9-14 23.87-24.72 22.65-4.58-.53-8-3-7.54-7.73.94-10.11 4.38-19.31 13.75-24.74 8.95-5.19 18.4 0 18.51 9.82ZM822.269 352.999c8.1-.16 13.42 6.07 12.44 13.59-1.26 9.62-12.44 20.16-22.19 20.93-7.13.55-11-3.64-9.68-10.69 1.37-7.21 4-13.88 9.53-19 3.02-2.83 6.52-4.67 9.9-4.83ZM664.859 79.2c7.76 0 10.31 3.78 6.89 10.8-4.79 9.84-12.57 17.069-21.68 22.769-5.12 3.2-9.3 1-10.26-4.4-1.55-8.79 15.03-31.21 25.05-29.17ZM432.169 149.999c.39-8.32 11.21-19.29 19.41-19.7 6.43-.32 10.1 4.51 7.3 10.13a37.608 37.608 0 0 1-16 16.74c-6.48 3.51-11.07.24-10.71-7.17ZM430.879 405.259c-.17-8.32 10.34-19.06 18.59-19 4.4 0 7 3.921 4.6 7.911a170.707 170.707 0 0 1-11.3 16.159 6.108 6.108 0 0 1-7.53 2.07c-3.22-1.29-4.43-3.83-4.36-7.14ZM605.369 315.779c5 0 7.27 3.05 5.68 7.21a31.138 31.138 0 0 1-12 15.31c-3.64 2.38-7.77 2.83-11-.61-3.23-3.44-2-7.19.38-10.45 4.39-5.95 10.02-10.24 16.94-11.46Z"/></svg>