<svg xmlns="http://www.w3.org/2000/svg" width="218" height="217" fill="none"><circle cx="109" cy="108.5" r="108.5" fill="#E1E3E6"/><path fill="#172328" d="M138.344 74h-60c-5.469 0-10 4.531-10 10v50c0 5.625 4.531 10 10 10h60c5.468 0 10-4.375 10-10V84c0-5.469-4.375-10-10-10Zm-52.5 10c4.062 0 7.5 3.438 7.5 7.5 0 4.219-3.281 7.5-7.5 7.5-4.375 0-7.5-3.281-7.5-7.5 0-4.063 3.437-7.5 7.5-7.5Zm52.344 48.75c-.469.781-1.407 1.25-2.188 1.25H81.312c-1.093 0-1.874-.469-2.343-1.25-.313-.938-.313-1.875.312-2.656l10.938-15c.469-.625 1.094-1.094 2.031-1.094.781 0 1.406.469 1.875 1.094l5.156 7.031 14.531-21.875c.469-.781 1.25-1.25 2.188-1.25.781 0 1.562.469 2.031 1.25l20 30c.469.625.469 1.719.157 2.5Z"/></svg>