<svg xmlns="http://www.w3.org/2000/svg" width="65" height="63" fill="none"><mask id="a" width="63" height="63" x="0" y="0" maskUnits="userSpaceOnUse" style="mask-type:luminance"><path fill="#fff" d="M31.397 63c17.34 0 31.397-14.103 31.397-31.5S48.737 0 31.397 0C14.057 0 0 14.103 0 31.5S14.057 63 31.397 63Z"/></mask><g fill="#F361A7" mask="url(#a)"><path d="M37.564 24.472c-.668.697-1.32 1.399-1.992 2.087-.094.096-.31.212-.364.168a.837.837 0 0 1-.31-.437c-.148-.613-.255-1.237-.438-1.843-.009.23-.035.458-.077.683-.033.13-.142.335-.236.335a.571.571 0 0 1-.427-.179c-.224-.25-.404-.54-.668-.8v.968c.021.197.029.395.023.593a.346.346 0 0 1-.207.25.444.444 0 0 1-.367-.106c-.431-.533-.835-1.088-1.254-1.627-.253-.325-.52-.639-.815-1.005.05.502.087.946.14 1.387.058.492.13.983.197 1.476.038.295.1.59.11.886 0 .176-.017.458-.117.503a.667.667 0 0 1-.54-.084c-.5-.316-.981-.67-1.472-1.005a.944.944 0 0 0-.2-.067c.086.355.166.68.247 1.005.117.451.257.895.334 1.35.016.09-.167.287-.278.316a8.261 8.261 0 0 1-1.002.132c-.522.057-1.047.112-1.57.168-.318.031-.572 0-.776-.335-.521-.852-1.092-1.676-1.648-2.504a245.981 245.981 0 0 0-1.7-2.503.325.325 0 0 1 .013-.46.334.334 0 0 1 .447-.064c.984.55 1.97 1.095 2.96 1.637a.965.965 0 0 0 .22.05c-.25-.48-.482-.912-.703-1.35-.22-.44-.406-.847-.616-1.267-.37-.74-.753-1.475-1.117-2.219a29.848 29.848 0 0 1-.727-1.6.304.304 0 0 1 .09-.285c.1-.057.291-.095.364-.038.425.335.825.683 1.235 1.03l2.004 1.694c.137.133.297.24.472.319-.035-.275-.063-.552-.107-.825-.158-.993-.324-1.985-.484-2.977a1869.52 1869.52 0 0 1-.578-3.594 4.428 4.428 0 0 1-.078-.595c0-.099.05-.26.118-.285a.4.4 0 0 1 .348.045c.228.207.44.431.633.67.761.935 1.518 1.876 2.27 2.82.26.336.5.67.766.994.384.481.776.953 1.18 1.451a.883.883 0 0 0 .04-.19c-.014-.584-.033-1.174-.055-1.752-.016-.405-.063-.813-.051-1.216a.488.488 0 0 1 .254-.349c.153-.065.307 0 .4.203.385.838.794 1.675 1.221 2.567.052-.22.1-.38.127-.545.17-1.052.338-2.105.501-3.16.13-.85.249-1.702.383-2.55a26.54 26.54 0 0 1 .305-1.665c.03-.133.194-.235.294-.352.105.094.264.167.304.286.068.237.11.481.125.728.066.651.11 1.306.179 1.958.087.828.19 1.654.282 2.482.045.403.082.81.122 1.216.077.8.152 1.6.292 2.426.176-.266.36-.53.523-.804.232-.39.443-.794.668-1.185.085-.14.167-.291.403-.233.235.06.259.188.264.376.016.623.04 1.246.056 1.871v.801c.28-.335.523-.616.752-.906.59-.75 1.169-1.508 1.758-2.262.557-.704 1.121-1.403 1.694-2.098.067-.082.2-.18.285-.168.186.03.334.146.28.383l-.418 1.705c-.186.756-.368 1.508-.556 2.267-.167.687-.354 1.37-.52 2.06-.183.765-.349 1.534-.533 2.3-.115.484-.248.963-.372 1.446-.043.168-.077.335-.119.528l1.838-.989c.201-.127.41-.242.626-.343.115-.044.334-.036.389.037a.514.514 0 0 1 .04.432c-.352.848-.728 1.687-1.1 2.527-.069.154-.168.294-.23.449-.13.308-.367.397-.684.422-.683.052-1.363.142-2.044.214-.344.05-.69.078-1.037.086a.419.419 0 0 1-.287-.293c0-.463.068-.925.113-1.388.057-.598.114-1.198.167-1.796.017-.167.052-.32.078-.48l-.06-.01Zm-13.499-4.127-.07.052c.12.231.247.462.363.697.227.467.439.941.668 1.406.334.67.688 1.328 1.028 1.995.266.525.538 1.047.777 1.584a.504.504 0 0 1-.057.428.415.415 0 0 1-.384.04c-.342-.153-.668-.353-1.002-.53l-1.874-1.006c.147.3.32.586.516.855.581.871 1.17 1.736 1.73 2.625.204.335.37.518.807.428a18.22 18.22 0 0 1 1.824-.185c-.159-.625-.31-1.21-.451-1.798-.1-.37-.178-.747-.232-1.127-.024-.206.282-.335.456-.225.379.252.753.513 1.135.764.27.178.545.344.85.538l-.055-.502c-.072-.644-.138-1.289-.22-1.93-.082-.642-.19-1.28-.267-1.92-.022-.183-.012-.376.22-.475.232-.099.362.057.473.203.466.61.918 1.231 1.38 1.843.2.266.41.526.667.851.028-.16.048-.32.059-.483 0-.335-.014-.67-.035-1.005a.277.277 0 0 1 .262-.335.417.417 0 0 1 .305.132c.291.322.563.66.847 1.006.025-.042.06-.074.065-.11.055-.515.105-1.031.167-1.547 0-.158.026-.314.075-.463a.414.414 0 0 1 .291-.206c.242-.018.347.178.39.379.106.502.188 1.005.29 1.498.127.628.265 1.253.409 1.925.369-.384.708-.73 1.04-1.084.428-.458.835-.93 1.283-1.37a.576.576 0 0 1 .447-.098c.064.01.136.226.13.347-.013.347-.064.69-.1 1.037l-.166 1.675c-.05.503-.102.992-.153 1.493.787-.072 1.539-.125 2.285-.222.189-.025.453.053.571-.22.283-.647.572-1.29.88-1.989-.753.42-1.45.818-2.17 1.19-.138.07-.396.099-.482.02-.085-.079-.098-.335-.066-.49.076-.378.207-.743.297-1.119.187-.782.354-1.57.541-2.345l.501-2.01c.2-.796.397-1.592.593-2.389.112-.454.22-.91.342-1.409-.051.042-.1.087-.145.134-.53.67-1.06 1.34-1.585 2.011-.668.863-1.328 1.734-2.004 2.59a.388.388 0 0 1-.334.131.536.536 0 0 1-.292-.335 10.704 10.704 0 0 1-.039-1.158v-1.273a.62.62 0 0 0-.222.238c-.354.576-.701 1.154-1.067 1.722a.346.346 0 0 1-.296.13.403.403 0 0 1-.258-.25c-.082-.594-.132-1.19-.193-1.785-.061-.635-.118-1.27-.183-1.903-.07-.682-.15-1.363-.224-2.043-.048-.457-.093-.913-.14-1.37a.766.766 0 0 0-.154.378c-.055.366-.097.73-.157 1.094-.112.68-.24 1.358-.349 2.038-.135.838-.252 1.695-.387 2.543-.034.213-.059.486-.321.518-.262.032-.378-.235-.476-.434-.222-.446-.412-.906-.625-1.359-.075-.159-.167-.306-.275-.487 0 .234-.01.42 0 .605.023.623.07 1.246.068 1.868a.53.53 0 0 1-.237.422.558.558 0 0 1-.44-.215c-.657-.802-1.288-1.627-1.935-2.437-.646-.811-1.324-1.644-1.985-2.467-.182-.224-.361-.452-.541-.67-.004.337.023.674.081 1.005.082.503.18 1.019.263 1.528.078.483.142.967.222 1.45.113.67.242 1.35.352 2.029.084.503.167 1.022.215 1.536a.462.462 0 0 1-.121.374.433.433 0 0 1-.403-.018c-.543-.436-1.062-.899-1.59-1.351l-1.403-1.208Z"/><path d="M26.115 29.72a.72.72 0 0 1-.682-.383c-.409-.67-.855-1.329-1.287-1.969l-.36-.53c-.519-.777-1.075-1.594-1.698-2.504a.406.406 0 0 1 .022-.568.42.42 0 0 1 .548-.077c1.015.568 2.049 1.136 2.959 1.637l.027.01-.146-.277c-.167-.315-.334-.618-.479-.923-.11-.22-.217-.44-.322-.67-.105-.23-.194-.404-.294-.603-.149-.3-.3-.598-.451-.895-.22-.434-.448-.881-.668-1.325a32.622 32.622 0 0 1-.73-1.605.376.376 0 0 1 .125-.39c.1-.056.334-.125.456-.033.317.245.627.503.925.766l.313.268.608.513 1.394 1.181.027.023c.09.081.186.153.289.217 0-.037-.009-.072-.014-.11-.023-.187-.045-.373-.075-.559-.093-.595-.19-1.19-.289-1.783a799.807 799.807 0 0 1-.762-4.78c0-.045-.014-.089-.021-.132a2.923 2.923 0 0 1-.057-.471c0-.1.049-.318.167-.365a.484.484 0 0 1 .434.062c.233.21.45.439.647.683.788.97 1.556 1.929 2.27 2.82.13.168.255.335.382.503.127.167.254.335.384.502.265.336.534.66.81.996l.262.321c-.013-.519-.032-1.134-.055-1.749a18.037 18.037 0 0 0-.025-.417c-.017-.263-.035-.536-.027-.804a.564.564 0 0 1 .304-.424.385.385 0 0 1 .501.244c.28.614.571 1.217.879 1.855l.242.503c.028-.112.053-.211.07-.312l.501-3.16c.058-.377.114-.754.167-1.13.068-.475.139-.947.214-1.42.08-.503.177-1.096.307-1.675a.615.615 0 0 1 .21-.287c.036-.034.072-.067.102-.102l.055-.064.064.057c.032.028.066.054.102.079.098.056.176.14.224.243.07.237.112.48.127.727v.018c.03.3.056.602.081.902.03.352.06.705.097 1.055.052.503.11.99.167 1.483l.115 1.006c.037.335.069.67.1.993l.026.268c.066.706.137 1.431.253 2.168l.046-.068c.12-.181.245-.367.357-.555.112-.188.222-.387.334-.581.112-.195.226-.406.344-.604.082-.139.207-.346.501-.273a.414.414 0 0 1 .326.456c0 .305.016.61.026.915.01.305.022.637.03.955V20.142l.112-.134c.167-.203.334-.396.488-.592.27-.343.538-.688.805-1.034.317-.41.636-.82.955-1.228.521-.658 1.074-1.34 1.694-2.1a.48.48 0 0 1 .364-.195.43.43 0 0 1 .307.167.379.379 0 0 1 .04.309l-.306 1.244-.282 1.157c-.128.524-.255 1.049-.386 1.573-.07.28-.14.558-.213.838-.104.405-.207.812-.306 1.22-.098.407-.185.789-.275 1.184-.09.396-.168.744-.258 1.116-.071.3-.15.598-.228.896-.049.185-.099.367-.146.552a8.7 8.7 0 0 0-.078.345l.4-.215 1.278-.687c.07-.038.14-.08.209-.122a2.65 2.65 0 0 1 .426-.224c.122-.047.399-.057.486.063a.592.592 0 0 1 .05.516c-.306.734-.633 1.473-.95 2.189l-.152.335c-.034.075-.072.149-.112.22-.043.074-.082.15-.115.229-.168.377-.471.449-.755.47-.461.037-.93.091-1.383.141l-.658.074-.247.028a5.514 5.514 0 0 1-.802.06.49.49 0 0 1-.369-.38c0-.355.045-.715.08-1.064l.034-.335v-.055c.055-.58.11-1.161.167-1.74.011-.111.031-.222.051-.336l-.374.394c-.5.523-1.002 1.064-1.52 1.588-.06.062-.343.275-.47.181a.916.916 0 0 1-.345-.484c-.05-.213-.096-.426-.141-.638-.054-.247-.109-.503-.167-.751-.009.076-.022.15-.04.224-.03.12-.148.384-.306.403a.665.665 0 0 1-.501-.208c-.092-.102-.179-.215-.262-.322-.084-.107-.167-.22-.266-.335v.759c0 .074 0 .148.015.22.014.128.014.257 0 .385a.42.42 0 0 1-.275.323.53.53 0 0 1-.446-.135c-.266-.336-.525-.67-.775-1.006-.167-.21-.32-.42-.48-.628-.16-.208-.352-.437-.542-.67l-.099-.117c0 .062.014.122.019.182.03.323.06.627.095.93.041.335.088.67.135 1.015l.062.46.038.258c.037.21.061.423.074.636 0 .15 0 .503-.167.587a.731.731 0 0 1-.62-.09c-.346-.215-.685-.455-1.012-.686l-.464-.325a.14.14 0 0 0-.039-.017l.044.178.167.685c.035.136.073.271.11.407.085.308.167.628.234.948.026.15-.202.38-.334.411-.254.054-.51.091-.768.11l-.246.024c-.522.06-1.045.115-1.57.168a1.579 1.579 0 0 1-.168.03Zm-3.693-5.927a.267.267 0 0 0-.192.097c-.104.104-.105.208 0 .355.625.908 1.18 1.728 1.7 2.503l.36.531c.432.64.88 1.304 1.29 1.976.179.29.383.335.698.295l1.568-.168.248-.025c.25-.018.5-.053.746-.105a.423.423 0 0 0 .214-.22c-.057-.312-.145-.627-.229-.931a34.748 34.748 0 0 1-.112-.411 37.53 37.53 0 0 1-.167-.687l-.113-.466.143.047.084.025c.048.01.095.028.137.054.157.107.312.218.467.327.326.23.668.467 1.002.682a.582.582 0 0 0 .456.08.724.724 0 0 0 .072-.429 5.135 5.135 0 0 0-.072-.618c-.013-.087-.027-.168-.038-.26-.02-.154-.042-.307-.064-.459-.046-.335-.093-.67-.133-1.019-.037-.305-.065-.608-.097-.933l-.044-.456-.026-.275.167.215.272.335c.19.23.37.45.544.67.174.221.323.42.481.629.25.335.501.67.774 1.005a.39.39 0 0 0 .288.075.28.28 0 0 0 .138-.177 1.637 1.637 0 0 0 0-.349c0-.079-.014-.156-.016-.233v-1.166l.14.138c.153.153.293.317.422.49.085.11.167.215.253.312a.27.27 0 0 0 .314.169.27.27 0 0 0 .206-.291c.033-.154.053-.31.06-.466 0-.069.008-.137.017-.206l.041-.42.12.405c.12.404.211.817.298 1.218.045.211.09.424.14.633a.749.749 0 0 0 .27.38c.099-.029.19-.082.265-.154.51-.524 1.022-1.064 1.516-1.586l.51-.537.191.054-.011.074-.029.152c-.018.106-.038.216-.05.325-.06.579-.115 1.158-.167 1.738v.057c-.011.109-.023.22-.033.335-.037.345-.074.702-.08 1.05a.376.376 0 0 0 .205.208c.26 0 .52-.02.778-.057l.25-.028.657-.074c.454-.052.924-.105 1.388-.14.334-.027.513-.131.615-.37.036-.084.077-.165.122-.244a2.74 2.74 0 0 0 .106-.208l.15-.335c.318-.713.647-1.452.95-2.178a.429.429 0 0 0-.03-.352.431.431 0 0 0-.291 0 2.69 2.69 0 0 0-.4.211c-.071.044-.143.088-.217.128l-1.277.687-.722.387.079-.352c.027-.123.052-.24.082-.355.046-.185.095-.369.143-.553.079-.297.157-.593.23-.893.088-.37.166-.74.256-1.113.09-.397.18-.792.276-1.186.095-.394.202-.816.305-1.223.072-.28.144-.558.214-.838.13-.524.257-1.049.386-1.573l.282-1.156.306-1.244a.217.217 0 0 0-.019-.167.27.27 0 0 0-.193-.103c-.039 0-.142.057-.209.138a155.8 155.8 0 0 0-1.69 2.096c-.32.408-.64.817-.955 1.226-.268.346-.535.692-.805 1.036-.156.198-.32.392-.491.596l-.266.265-.148.18v-1.038a67.673 67.673 0 0 0-.03-.955c-.01-.305-.019-.61-.027-.916 0-.186-.055-.258-.2-.297-.146-.038-.22.044-.311.196-.119.198-.23.399-.334.6-.104.201-.22.392-.334.585-.116.192-.24.38-.363.563-.055.08-.108.167-.167.244l-.117.178-.035-.21c-.138-.814-.215-1.615-.29-2.389l-.025-.268c-.032-.335-.064-.67-.1-.992-.037-.322-.076-.67-.116-1.005-.057-.503-.115-.989-.167-1.485a56.488 56.488 0 0 1-.097-1.059c-.026-.3-.052-.6-.082-.9v-.018a3.14 3.14 0 0 0-.12-.69c-.018-.055-.092-.109-.167-.168l-.051-.038-.059.055a.517.517 0 0 0-.167.201 26.37 26.37 0 0 0-.304 1.659c-.075.473-.145.945-.214 1.418l-.167 1.134c-.162 1.054-.33 2.108-.5 3.16a4.166 4.166 0 0 1-.078.347c-.015.062-.033.129-.05.204l-.053.23-.104-.213-.334-.712c-.307-.639-.598-1.242-.88-1.857-.04-.088-.133-.23-.292-.167a.415.415 0 0 0-.202.275c0 .26.01.529.027.789.01.139.018.28.025.42.023.615.041 1.232.055 1.753 0 .05-.01.1-.025.149 0 .02-.012.04-.017.06l-.037.168-.479-.587c-.276-.335-.546-.67-.812-1.005-.132-.167-.259-.335-.387-.503-.129-.167-.25-.335-.38-.492-.712-.892-1.479-1.843-2.269-2.82a5.636 5.636 0 0 0-.623-.67.324.324 0 0 0-.262-.03.348.348 0 0 0-.065.204c.006.15.024.299.053.446l.024.134a953.269 953.269 0 0 0 .771 4.788l.29 1.783c.03.188.053.377.074.567.01.087.022.167.032.26l.018.142-.131-.054a1.616 1.616 0 0 1-.466-.308l-.029-.024-1.393-1.173-.608-.514-.314-.268a23.943 23.943 0 0 0-.918-.76.388.388 0 0 0-.272.046.26.26 0 0 0-.054.178c.237.561.481 1.097.725 1.597.217.442.444.89.668 1.322.15.298.303.596.453.896.1.201.197.404.294.605.097.2.21.442.32.66.154.305.313.605.48.921l.309.589-.167-.039-.099-.018a.46.46 0 0 1-.145-.04c-.91-.503-1.944-1.07-2.961-1.64a.323.323 0 0 0-.174-.004Zm3.965 5.24c-.346 0-.511-.215-.682-.489-.42-.68-.875-1.353-1.314-2.01l-.414-.617-.089-.132a4.813 4.813 0 0 1-.434-.734l-.097-.221.802.425 1.286.684.324.18c.215.12.44.246.668.348a.38.38 0 0 0 .285-.015.42.42 0 0 0 .046-.335 28.266 28.266 0 0 0-.69-1.413l-.085-.167c-.15-.295-.303-.59-.456-.883-.192-.37-.384-.741-.571-1.115-.137-.271-.27-.55-.398-.822-.092-.195-.184-.39-.277-.583-.079-.168-.167-.317-.246-.474l-.117-.222-.033-.065.184-.13 1.451 1.24.414.36c.381.334.775.67 1.17.99a.362.362 0 0 0 .305.013.402.402 0 0 0 .083-.295c-.06-.56-.145-1.112-.213-1.531a81.94 81.94 0 0 0-.19-1.084c-.054-.315-.111-.63-.166-.945-.043-.255-.08-.503-.119-.768-.033-.226-.067-.454-.105-.682-.038-.228-.083-.502-.127-.744a41.744 41.744 0 0 1-.133-.784 5.461 5.461 0 0 1-.084-1.02v-.231l.31.392.375.469.69.856c.432.536.866 1.07 1.296 1.61.245.309.487.619.731.927.39.502.795 1.005 1.202 1.508a.512.512 0 0 0 .353.186.478.478 0 0 0 .177-.335c0-.424-.02-.855-.042-1.274-.01-.197-.02-.393-.027-.591v-.917l.154.27.097.168c.066.108.127.22.182.335.087.182.167.367.25.55.119.267.242.542.374.807l.024.05c.107.22.187.362.367.335.18-.027.207-.177.242-.41v-.039c.067-.419.129-.838.19-1.258a85.7 85.7 0 0 1 .388-2.406c.055-.305.108-.61.159-.917.033-.204.062-.409.088-.611.022-.168.044-.322.069-.481a.84.84 0 0 1 .167-.42l.127-.167.063.624c.032.316.064.633.099.95l.092.837c.045.403.09.805.132 1.207a178.605 178.605 0 0 1 .183 1.903l.035.354c.046.469.092.953.157 1.427a.333.333 0 0 0 .197.181.28.28 0 0 0 .204-.095c.27-.416.533-.846.788-1.264.092-.152.186-.303.28-.455a.684.684 0 0 1 .267-.275l.125-.07V20.352c-.005.312.008.624.038.935a.459.459 0 0 0 .244.263.333.333 0 0 0 .23-.106c.42-.53.836-1.075 1.245-1.603l.76-.987c.407-.524.82-1.046 1.232-1.567l.354-.447a.546.546 0 0 1 .089-.085l.065-.06.202-.185-.167.72c-.08.335-.156.644-.232.957l-.593 2.388-.192.752c-.109.42-.217.838-.317 1.263-.1.426-.188.8-.278 1.2-.09.4-.167.77-.264 1.151-.04.168-.086.335-.133.488-.06.206-.122.419-.167.63a.56.56 0 0 0 .041.41.499.499 0 0 0 .385-.032c.527-.274 1.04-.563 1.584-.866l.578-.322.217-.122-.37.838c-.21.47-.413.925-.61 1.379-.113.261-.342.263-.51.263h-.126c-.545.07-1.08.117-1.648.167l-.642.057h-.1l.334-3.275.035-.315c.029-.235.057-.478.065-.716a.54.54 0 0 0-.073-.263.49.49 0 0 0-.363.077c-.29.288-.573.597-.845.895-.143.16-.289.317-.436.473-.227.243-.459.482-.701.733l-.448.465-.167-.763c-.096-.449-.19-.881-.279-1.317a43.59 43.59 0 0 1-.128-.67c-.05-.271-.102-.553-.167-.826-.072-.335-.246-.318-.302-.313a.343.343 0 0 0-.222.157.913.913 0 0 0-.057.315c0 .042 0 .082-.01.122-.024.222-.045.444-.069.67-.03.294-.06.587-.092.88a.222.222 0 0 1-.053.113c0 .01-.015.02-.022.031l-.06.1-.075-.09-.23-.278c-.208-.251-.405-.489-.615-.722a.333.333 0 0 0-.236-.104c-.135.012-.198.092-.188.242.021.298.031.62.036 1.015a2.023 2.023 0 0 1-.03.291l-.028.203-.025.2-.124-.168-.238-.303c-.154-.195-.293-.37-.428-.55l-.543-.729c-.277-.373-.554-.747-.835-1.117l.002-.01c-.117-.154-.192-.236-.363-.168-.17.069-.192.203-.166.387.041.349.093.702.143 1.044.042.292.085.583.122.875.059.454.109.915.159 1.36l.063.573.074.68-.423-.266c-.2-.124-.39-.241-.576-.363a40.664 40.664 0 0 1-.588-.398l-.548-.368a.244.244 0 0 0-.245.013.147.147 0 0 0-.08.133c.044.329.11.655.195.976l.033.143c.099.409.203.816.31 1.236l.166.654h-.095c-.195.02-.387.033-.576.048-.413.023-.825.07-1.232.144-.07.023-.142.037-.214.044Zm-2.672-3.816c.092.168.198.323.304.477l.088.133.414.616c.441.654.895 1.33 1.318 2.011.202.323.334.468.72.389.415-.075.833-.124 1.254-.148.155-.011.314-.023.474-.038l-.118-.464c-.107-.42-.21-.838-.31-1.239l-.033-.142a8.152 8.152 0 0 1-.2-.997.307.307 0 0 1 .167-.293.4.4 0 0 1 .424-.01l.55.37a29.603 29.603 0 0 0 1.157.757l.134.082-.039-.335c-.022-.19-.042-.382-.063-.573a68.643 68.643 0 0 0-.157-1.357c-.037-.291-.08-.581-.122-.871-.05-.335-.102-.699-.144-1.049-.025-.198-.015-.439.269-.561.284-.123.45.068.561.214l.01.014c.284.37.561.745.835 1.119l.541.729c.134.177.273.353.426.546l.117.15v-.013c.016-.087.026-.174.029-.263 0-.392-.016-.712-.036-1.005a.36.36 0 0 1 .334-.42.5.5 0 0 1 .374.167c.214.236.42.486.62.727l.15.183.089-.848.068-.67c0-.037 0-.076.009-.114.001-.13.026-.257.073-.377a.502.502 0 0 1 .36-.253c.245-.019.412.14.479.445.058.277.11.558.167.838.041.223.083.446.128.67.089.434.182.868.277 1.316l.099.456.23-.24c.243-.25.473-.49.702-.73.145-.156.289-.314.432-.471.274-.3.558-.61.852-.902a.658.658 0 0 1 .52-.122c.14.025.205.318.2.434-.01.244-.038.49-.065.729a9.558 9.558 0 0 0-.035.313l-.31 3.05.54-.05c.566-.048 1.1-.093 1.642-.167h.147c.178 0 .292-.008.359-.167.197-.454.399-.908.608-1.38l.167-.38-.36.2c-.545.305-1.06.593-1.587.868-.154.08-.453.122-.577 0-.123-.123-.12-.428-.092-.568.044-.218.107-.434.167-.642.045-.158.094-.32.13-.48.093-.383.18-.767.266-1.15.087-.384.18-.803.276-1.202.102-.424.21-.837.319-1.266l.192-.753.593-2.386.232-.956.037-.153-.281.354c-.41.52-.823 1.04-1.23 1.565l-.757 1.005c-.406.528-.825 1.074-1.245 1.605a.454.454 0 0 1-.432.154.608.608 0 0 1-.334-.395 8.316 8.316 0 0 1-.04-.954v-1.313a.835.835 0 0 0-.08.115l-.28.454c-.255.418-.519.85-.79 1.269a.425.425 0 0 1-.388.168.48.48 0 0 1-.318-.32 32.792 32.792 0 0 1-.158-1.433l-.027-.355c-.027-.26-.05-.518-.075-.778-.035-.375-.07-.75-.11-1.126-.04-.402-.085-.802-.13-1.205l-.094-.837c-.034-.316-.066-.633-.097-.95l-.013-.126a.652.652 0 0 0-.017.089 37.11 37.11 0 0 0-.069.477c-.026.207-.055.413-.088.617-.052.307-.108.614-.167.92-.067.372-.132.744-.19 1.117-.069.428-.132.855-.197 1.284-.066.429-.124.838-.19 1.26v.037c-.034.216-.08.502-.387.551-.307.049-.442-.233-.54-.43l-.023-.05a23.335 23.335 0 0 1-.375-.812c-.082-.184-.167-.367-.25-.548a2.92 2.92 0 0 0-.12-.224v.301c0 .196.017.394.027.59.022.42.044.855.042 1.284 0 .167-.133.454-.299.502-.165.049-.419-.109-.527-.241-.408-.503-.812-1.014-1.205-1.508-.242-.308-.484-.618-.73-.925-.428-.54-.86-1.076-1.295-1.61l-.69-.856-.374-.471-.017-.02c.01.25.037.501.079.749.043.261.088.52.133.78.045.26.089.503.129.748.04.244.07.456.105.685.037.255.075.503.117.763.053.314.109.63.167.945.063.361.128.722.187 1.085.068.42.155.977.217 1.54a.536.536 0 0 1-.167.454.514.514 0 0 1-.501-.023c-.4-.322-.795-.67-1.169-.994l-.42-.364-1.248-1.069.018.04c.085.167.167.317.249.478l.277.585c.129.27.259.55.396.82.187.371.379.742.571 1.112.154.294.306.588.456.883l.085.168c.236.462.48.94.693 1.42a.583.583 0 0 1-.065.513c-.09.117-.359.124-.486.067-.232-.105-.46-.233-.678-.355l-.32-.18-1.287-.683-.36-.196ZM65 46.605c0 .679-.483 1.073-1.396 1.078-2.477.013-4.728.743-6.87 1.98-5.522 3.184-11.062 3.135-16.6-.02-.848-.487-1.737-.9-2.656-1.233a14.278 14.278 0 0 0-1.504-.448c-3.34-.792-6.68-.26-10.003 1.629l-.02.012a19.278 19.278 0 0 1-4.24 1.818c-1.674.489-3.42.682-5.16.571a14.562 14.562 0 0 1-1.866-.246 16.634 16.634 0 0 1-3.865-1.275 20.328 20.328 0 0 1-1.745-.918c-.367-.217-.74-.415-1.116-.594a12.514 12.514 0 0 0-5.469-1.265c-.628 0-1.136-.167-1.483-.707v-.752c.36-.573.892-.734 1.542-.715 2.47.046 4.891.69 7.06 1.874.167.087.32.178.478.272.254.15.501.293.76.427.474.254.949.477 1.423.67 1.144.486 2.348.815 3.579.98a12.857 12.857 0 0 0 3.398-.013c1.906-.261 3.816-.947 5.74-2.04 4.29-2.444 8.656-2.908 12.978-1.4.462.161.924.345 1.386.552a19.14 19.14 0 0 1 1.685.856c4.989 2.838 9.907 2.915 14.847-.012a15.247 15.247 0 0 1 7.534-2.163h.187c.893.015 1.393.402 1.396 1.082Z"/><path d="M50.512 22.495c-.365-.284-.69-.112-1.002.154-2.475 2.083-4.961 4.152-7.431 6.24a1.26 1.26 0 0 1-1.06.335c-2.17-.256-4.331-.464-6.496-.715a4.565 4.565 0 0 0-3.747 1.156c-.501.449-1.05.856-1.55 1.312a.774.774 0 0 1-.812.18c-1.272-.336-2.553-.627-3.826-.956-1.59-.41-3.006-.109-4.25.979-.58.502-1.17.99-1.794 1.508-2.004-1.916-2.046-1.92-4.425-.49l-1.687-2.022c-.601-.724-1.203-1.446-1.806-2.168-.278-.335-.637-.46-.988-.168-.35.292-.334.682-.027 1.04 1.157 1.388 2.31 2.776 3.524 4.233-.227.191-.441.359-.643.541-.648.59-.919 1.314-.735 2.187.085.405.334.648.755.586a.59.59 0 0 0 .56-.501.598.598 0 0 0-.019-.27c-.103-.52.115-.854.501-1.159.635-.502 1.243-1.035 1.864-1.553.706-.588 1.065-.558 1.648.137l.414.503-.474.397c-1.21 1.014-2.413 2.038-3.634 3.04-1.169.963-1.541 2.166-1.169 3.629.62 2.443 1.223 4.889 1.837 7.335.05.198.09.397.107.476l-1.876.32-2.464.422-.064-.167 1.099-.949 1.169-.971c.638-.535.762-.875.453-1.249-.31-.373-.657-.316-1.301.225l-1.55 1.297-1.263 1.064c-.175.126-.31.3-.389.502.376.18.748.377 1.116.593.58.342 1.163.648 1.745.919a3.53 3.53 0 0 0 .543-.168 4.706 4.706 0 0 1 2.754-.298c.334.07.464.245.588.566.185.48.181.838-.02 1.173.616.122 1.24.205 1.867.246l2.695-2.256c9.575-8.01 19.143-16.022 28.705-24.036.102-.076.21-.145.322-.206-.299 1.34-.61 2.637-.868 3.946-.06.367-.256.698-.548.928A7399.778 7399.778 0 0 0 32.664 42.24c-.157.132-.389.26-.43.427-.066.261-.102.649.041.808.144.159.53.152.799.125.157-.016.297-.214.442-.335l10.12-8.476 3.373-2.825c-.009 1.508-.067 2.939-.012 4.356.062 1.595-.513 2.835-1.727 3.854l-7.31 6.12-1.99 1.668c.508.121 1.01.27 1.503.447l1.868-1.563c2.227-1.867 4.46-3.731 6.697-5.595 1.614-1.34 2.355-2.979 2.27-5.082-.167-4.03.274-7.977 1.86-11.728.133-.312.275-.62.426-.924.185-.365.29-.73-.082-1.022ZM13.51 40.444c-.294-1.026-.048-1.806.792-2.49 2.056-1.676 4.143-3.316 6.079-5.12 1.473-1.375 2.982-1.822 4.87-1.117.723.27 1.503.386 2.323.589l-7.322 6.132c-1.039-.935-1.04-1.498-.025-2.346 1.015-.847 2.047-1.712 3.07-2.57.537-.452.65-.838.35-1.173-.299-.335-.656-.285-1.169.148-.982.818-1.962 1.639-2.94 2.461-1.716 1.436-1.826 2.478-.453 4.264.028.045.053.092.075.141l-4.89 4.08c-.26-1.04-.48-2.03-.76-3Zm26.48-9.824c-.935.788-1.93 1.508-2.792 2.374-.817.815-1.653 1.03-2.764.761-1.909-.463-3.559.124-5.053 1.39-4.202 3.566-8.44 7.086-12.663 10.625a2.74 2.74 0 0 0-.484.47c-.267.373-.08.953.359.965.501.011.715.308.982.611a.602.602 0 0 0 .902.09c.312-.25.324-.578.102-.903-.146-.214-.31-.415-.471-.633l2.867-2.401c.46.32.74 1.173 1.43.622.735-.595-.114-1.03-.334-1.527l2.879-2.41c.45.343.72 1.199 1.418.63.698-.57-.109-1.035-.334-1.534l2.829-2.367c.457.335.745 1.187 1.434.61.719-.602-.14-1.03-.347-1.509 1.268-1.419 3.04-1.926 4.564-1.315L16.994 49.842l-.91.759c-.04-.11-.072-.168-.088-.243a83.946 83.946 0 0 1-.152-.612c-.374-1.493-.74-2.987-1.133-4.475-.088-.335.067-.48.276-.654 5.581-4.67 11.163-9.343 16.744-14.019a3.22 3.22 0 0 1 2.545-.774c1.792.205 3.586.385 5.378.58.137.015.27.055.424.087a.925.925 0 0 1-.089.13ZM26.335 47.543c-.104.082-.204.168-.304.253l-4.32 3.624a19.282 19.282 0 0 0 4.235-1.825l.02-.011c.41-.342.818-.684 1.226-1.027.424-.357.5-.751.24-1.068-.26-.316-.663-.29-1.097.056v-.002Z"/><path stroke="#F361A7" d="M14.702 50.708C12.845 50.708 7.063 48.28 5 47c19.81 28.273 43.492 12.671 52.262 1.403 0 0-13.155 3.841-17.798 0-4.643-3.842-12.38-.768-14.702.768-2.322 1.537-7.738 1.537-10.06 1.537Z"/></g><path stroke="#F361A7" stroke-width="2" d="M62.452 31.5c0 16.838-13.75 30.5-30.726 30.5S1 48.338 1 31.5 14.75 1 31.726 1c16.977 0 30.726 13.662 30.726 30.5Z"/></svg>