<svg xmlns="http://www.w3.org/2000/svg" width="42" height="42" fill="none"><g clip-path="url(#a)"><mask id="b" width="41" height="42" x="0" y="0" maskUnits="userSpaceOnUse" style="mask-type:luminance"><path fill="#fff" d="M20.287 41.5c11.205 0 20.288-9.178 20.288-20.5S31.492.5 20.287.5C9.083.5 0 9.678 0 21s9.083 20.5 20.287 20.5Z"/></mask><g fill="#fff" mask="url(#b)"><path d="M24.273 16.426c-.432.453-.854.91-1.288 1.358-.06.063-.2.138-.235.11a.545.545 0 0 1-.2-.285c-.096-.4-.165-.805-.284-1.2-.005.15-.022.298-.05.445-.02.085-.091.218-.151.218a.365.365 0 0 1-.277-.116c-.144-.163-.26-.351-.431-.522v.63c.013.129.018.258.015.387a.226.226 0 0 1-.134.162.286.286 0 0 1-.237-.069c-.279-.346-.54-.707-.81-1.058-.164-.212-.336-.416-.527-.655.032.328.056.617.09.903.038.32.084.64.128.961.024.192.064.384.07.577 0 .114-.01.298-.075.327a.427.427 0 0 1-.348-.055c-.324-.206-.635-.436-.952-.654a.615.615 0 0 0-.13-.044l.16.655c.076.293.166.582.216.879.01.058-.108.186-.18.205-.213.042-.43.07-.647.086l-1.014.109c-.206.02-.37 0-.502-.218-.337-.554-.706-1.09-1.065-1.63-.36-.538-.73-1.09-1.098-1.628a.212.212 0 0 1 .008-.3.215.215 0 0 1 .29-.042c.635.358 1.272.713 1.912 1.066a.618.618 0 0 0 .142.032c-.162-.311-.312-.593-.454-.879-.143-.285-.262-.55-.398-.824-.239-.482-.487-.96-.722-1.444a19.62 19.62 0 0 1-.47-1.041.2.2 0 0 1 .059-.185c.064-.037.187-.063.235-.025.274.218.533.444.797.67l1.295 1.103c.09.086.192.156.306.207-.023-.18-.041-.359-.07-.537-.102-.646-.209-1.292-.313-1.937-.125-.78-.25-1.56-.373-2.34a2.93 2.93 0 0 1-.05-.386c0-.065.032-.17.076-.186a.257.257 0 0 1 .224.03c.148.134.285.28.41.436.492.608.98 1.22 1.466 1.835.168.218.324.436.495.647.248.313.502.62.763.944a.58.58 0 0 0 .026-.124c-.01-.38-.021-.764-.035-1.14-.011-.264-.041-.529-.034-.792a.317.317 0 0 1 .164-.226c.1-.043.199 0 .26.132.247.545.512 1.09.788 1.67.033-.143.065-.247.082-.354.11-.685.218-1.37.324-2.057.084-.553.16-1.108.247-1.66.057-.363.117-.726.197-1.083.02-.086.125-.153.19-.23.068.062.17.11.197.187.043.154.07.313.08.473.043.425.072.85.116 1.275.056.539.123 1.076.182 1.615.03.263.053.528.08.792.049.52.097 1.041.188 1.579.113-.174.232-.345.338-.524.15-.254.286-.517.431-.77.055-.092.108-.19.26-.152.153.038.168.122.17.244.012.406.027.811.038 1.218v.521c.18-.218.337-.401.485-.59.381-.488.756-.981 1.136-1.472.36-.458.725-.913 1.095-1.365.043-.053.13-.118.184-.11.12.02.216.096.18.25l-.27 1.11c-.12.491-.237.981-.359 1.475-.108.447-.228.892-.335 1.34-.119.498-.226.999-.345 1.497-.074.315-.16.627-.24.941-.028.11-.05.218-.077.344l1.187-.644c.13-.083.266-.157.405-.223.074-.029.216-.023.251.024a.336.336 0 0 1 .026.281c-.227.552-.47 1.098-.71 1.644-.045.1-.109.192-.149.293-.084.2-.237.258-.442.275-.442.033-.88.092-1.321.14-.222.031-.446.05-.67.055a.27.27 0 0 1-.186-.191c0-.301.044-.602.074-.903l.108-1.169c.01-.109.033-.208.05-.313l-.038-.005ZM15.55 13.74l-.045.034c.077.15.16.3.234.453.147.305.284.613.431.915.216.436.445.865.665 1.299.172.341.348.681.502 1.03a.329.329 0 0 1-.037.28.266.266 0 0 1-.248.026c-.221-.1-.431-.23-.647-.346l-1.211-.654c.095.195.206.38.333.556.376.567.756 1.13 1.118 1.709.132.218.239.337.521.278.391-.06.784-.1 1.179-.12-.103-.407-.2-.787-.291-1.17a6.149 6.149 0 0 1-.15-.734c-.016-.134.182-.218.294-.146.245.163.487.333.734.497.174.116.352.224.55.35l-.036-.327c-.047-.419-.09-.839-.143-1.256-.053-.418-.123-.832-.172-1.25-.015-.119-.008-.244.142-.309.15-.064.234.038.305.132.301.397.594.802.892 1.2.13.173.265.342.431.554.018-.104.031-.209.038-.314 0-.218-.009-.436-.023-.654a.182.182 0 0 1 .095-.2.176.176 0 0 1 .075-.018.267.267 0 0 1 .197.086c.188.209.364.43.547.654.017-.027.04-.048.043-.071.035-.336.067-.672.107-1.008 0-.102.017-.203.049-.3a.27.27 0 0 1 .188-.135c.156-.012.224.116.252.247.068.327.121.654.187.975.082.409.172.815.264 1.253.239-.25.458-.476.673-.706.276-.298.54-.605.828-.892a.372.372 0 0 1 .29-.063c.04.006.087.147.084.225-.009.226-.042.45-.065.675l-.108 1.09c-.032.328-.066.646-.098.973.508-.047.994-.082 1.476-.145.122-.017.293.034.37-.143.181-.421.368-.84.568-1.295-.487.273-.938.532-1.403.774-.088.046-.256.065-.31.014-.056-.052-.064-.219-.044-.319.05-.246.134-.484.192-.728.121-.51.229-1.022.35-1.527a25220.397 25220.397 0 0 1 .707-2.862l.22-.917a.969.969 0 0 0-.093.087c-.342.436-.685.872-1.024 1.309-.432.561-.858 1.128-1.295 1.685a.251.251 0 0 1-.216.085.346.346 0 0 1-.189-.218 7.02 7.02 0 0 1-.025-.753v-.829a.403.403 0 0 0-.143.155c-.229.375-.453.751-.69 1.12a.224.224 0 0 1-.19.085.26.26 0 0 1-.168-.163c-.053-.386-.085-.774-.124-1.161-.04-.413-.077-.826-.119-1.239-.045-.444-.097-.886-.144-1.329-.032-.298-.06-.594-.09-.892a.5.5 0 0 0-.1.247c-.036.237-.063.475-.102.712-.072.442-.155.883-.225 1.326-.088.545-.163 1.103-.25 1.655-.022.138-.038.316-.208.337-.17.02-.244-.153-.307-.283-.144-.29-.267-.59-.404-.884-.048-.104-.108-.2-.178-.317 0 .152-.006.273 0 .393.015.406.045.812.044 1.216a.346.346 0 0 1-.153.275.358.358 0 0 1-.285-.14c-.424-.522-.832-1.058-1.25-1.586-.417-.528-.855-1.07-1.283-1.605-.117-.146-.233-.295-.35-.437-.002.22.016.439.054.655.053.327.115.663.17.994.05.314.09.63.143.944.073.436.156.878.227 1.32.054.327.108.665.14 1a.302.302 0 0 1-.08.243.279.279 0 0 1-.26-.012c-.35-.283-.686-.584-1.027-.879l-.906-.786Z"/><path d="M16.874 19.842a.464.464 0 0 1-.44-.25c-.265-.436-.553-.865-.832-1.281l-.232-.346a189.7 189.7 0 0 0-1.098-1.629.266.266 0 0 1 .014-.37.27.27 0 0 1 .354-.05c.656.37 1.324.74 1.912 1.066l.018.006-.094-.18c-.108-.205-.216-.402-.31-.6-.071-.143-.14-.287-.208-.437-.068-.15-.125-.263-.19-.392-.096-.195-.194-.39-.291-.583-.143-.282-.29-.573-.432-.862a21.355 21.355 0 0 1-.472-1.045.248.248 0 0 1 .081-.253c.065-.037.216-.081.295-.022.205.16.405.328.598.499l.202.174.392.334.901.769.018.015c.058.052.12.1.186.14 0-.023-.005-.046-.008-.07-.015-.122-.03-.243-.049-.364-.06-.388-.122-.775-.186-1.16a539.202 539.202 0 0 1-.492-3.111c0-.03-.01-.058-.015-.087a1.924 1.924 0 0 1-.036-.306c0-.066.031-.207.108-.238a.311.311 0 0 1 .28.04c.15.137.29.286.418.445.51.632 1.006 1.255 1.466 1.835.085.11.165.219.247.328l.249.327c.171.218.345.43.523.647l.17.21a94.82 94.82 0 0 0-.036-1.139l-.016-.271c-.011-.171-.023-.35-.018-.524a.368.368 0 0 1 .197-.275.245.245 0 0 1 .275.07.251.251 0 0 1 .049.089c.18.399.369.791.567 1.207l.157.327c.018-.073.034-.137.045-.203l.324-2.056.108-.736c.044-.309.09-.616.138-.924.052-.327.114-.713.198-1.09a.4.4 0 0 1 .136-.187c.023-.022.047-.043.066-.066l.036-.042.04.037a.839.839 0 0 0 .066.052.355.355 0 0 1 .145.158c.045.154.073.312.082.473v.012c.02.195.037.391.053.587.02.229.039.459.063.686.033.328.07.645.107.965l.075.655c.024.218.044.436.065.646l.016.175c.043.459.088.931.164 1.41l.029-.044c.078-.118.159-.239.23-.36.073-.123.144-.253.217-.38.072-.126.145-.263.222-.392.053-.09.134-.225.324-.177a.267.267 0 0 1 .162.107.273.273 0 0 1 .048.19c0 .198.011.396.018.595.006.198.014.414.019.621v.371l.072-.087c.108-.132.216-.258.315-.385.175-.224.348-.448.52-.673.205-.268.411-.534.618-.8.336-.428.694-.872 1.094-1.366a.308.308 0 0 1 .235-.127.279.279 0 0 1 .199.109.248.248 0 0 1 .026.2l-.198.81-.182.753c-.083.341-.165.683-.25 1.024-.045.182-.09.363-.138.545-.067.264-.134.529-.197.794-.064.265-.12.514-.178.77-.059.258-.108.485-.166.727-.047.195-.098.39-.148.583-.032.12-.064.24-.094.36a5.9 5.9 0 0 0-.05.224l.258-.14.826-.447a3.53 3.53 0 0 0 .135-.08c.087-.056.179-.105.275-.146.079-.03.258-.037.314.042a.387.387 0 0 1 .032.336c-.197.477-.409.958-.614 1.424l-.098.218c-.022.049-.046.097-.072.144a1.351 1.351 0 0 0-.075.148c-.108.245-.304.292-.488.307-.297.024-.6.058-.893.091l-.425.048-.16.019a3.521 3.521 0 0 1-.518.038.316.316 0 0 1-.238-.247c0-.23.029-.465.051-.692.008-.072.016-.143.022-.218v-.036c.036-.377.071-.756.108-1.133.007-.072.02-.144.033-.218l-.241.256c-.324.34-.648.693-.982 1.034-.04.04-.223.179-.305.118a.596.596 0 0 1-.222-.316 18.728 18.728 0 0 1-.092-.415c-.034-.16-.07-.327-.108-.489-.005.05-.014.099-.026.147-.019.077-.095.25-.197.261a.428.428 0 0 1-.324-.135c-.06-.066-.115-.14-.17-.21-.053-.069-.107-.142-.17-.217v.494c0 .048 0 .096.009.143.01.083.01.167 0 .25a.275.275 0 0 1-.178.21.34.34 0 0 1-.288-.088 29.37 29.37 0 0 1-.5-.654c-.109-.136-.207-.274-.31-.409-.104-.135-.228-.284-.351-.436l-.064-.076c0 .04.009.08.012.119.02.21.039.407.061.605.027.218.058.436.088.66l.04.3.024.167c.024.137.04.276.048.415 0 .097 0 .327-.108.381a.469.469 0 0 1-.4-.058c-.224-.14-.443-.296-.654-.447l-.3-.211a.086.086 0 0 0-.025-.011l.028.116.108.446.071.264c.055.201.108.41.151.618.018.097-.13.246-.215.267-.164.035-.33.06-.497.072l-.159.015c-.337.039-.675.075-1.014.11a1.012 1.012 0 0 1-.109.019Zm-2.386-3.858a.17.17 0 0 0-.124.063c-.067.068-.068.135 0 .231.404.591.763 1.125 1.099 1.63l.232.345c.28.417.568.848.834 1.286.115.188.247.218.45.192l1.014-.11.16-.016c.162-.012.323-.035.482-.069a.275.275 0 0 0 .138-.142c-.036-.203-.094-.408-.148-.607l-.072-.267a24.518 24.518 0 0 1-.108-.447l-.073-.303.093.03.054.017a.254.254 0 0 1 .088.035c.102.07.202.142.302.212.21.15.432.305.648.444a.374.374 0 0 0 .294.053.476.476 0 0 0 .047-.28 3.419 3.419 0 0 0-.047-.402c-.008-.057-.017-.109-.024-.169a27.659 27.659 0 0 1-.127-.962c-.024-.198-.043-.396-.063-.607l-.028-.297-.018-.179.108.14.176.218c.123.15.24.292.352.436.112.144.208.273.31.41.163.217.324.435.5.653a.25.25 0 0 0 .187.05.181.181 0 0 0 .088-.116 1.075 1.075 0 0 0 0-.227c0-.051-.008-.101-.01-.151v-.759l.091.089c.099.1.19.206.272.32.055.07.108.14.164.202a.175.175 0 0 0 .203.11.174.174 0 0 0 .133-.19c.021-.099.034-.2.039-.302 0-.045.005-.09.01-.134l.028-.274.077.264c.078.262.136.532.192.792.03.138.059.276.091.413.03.099.091.185.174.247a.415.415 0 0 0 .171-.1c.33-.341.66-.693.98-1.033l.33-.349.123.035-.007.048c-.007.033-.012.066-.018.1-.012.068-.025.14-.033.21-.039.377-.074.754-.108 1.132v.037c-.007.07-.015.143-.021.218a8.036 8.036 0 0 0-.052.683.243.243 0 0 0 .133.136c.168 0 .336-.013.502-.037l.161-.019.425-.048c.294-.034.597-.069.897-.091.216-.018.331-.085.397-.241a1.64 1.64 0 0 1 .079-.159c.025-.044.049-.089.069-.135l.097-.218c.205-.464.418-.945.614-1.417a.28.28 0 0 0-.02-.23.277.277 0 0 0-.188 0c-.09.039-.176.085-.258.138-.046.028-.093.057-.14.083l-.826.447-.466.252.05-.23c.018-.079.034-.155.054-.23l.092-.36c.051-.193.102-.386.148-.581.058-.241.108-.482.166-.724a57.56 57.56 0 0 1 .376-1.569c.046-.182.093-.363.138-.545l.25-1.024.182-.752.197-.81a.144.144 0 0 0-.012-.108.175.175 0 0 0-.125-.067c-.025 0-.091.037-.135.09-.399.49-.755.937-1.092 1.364-.207.265-.413.531-.617.798-.173.225-.345.45-.52.674-.1.129-.206.255-.317.388l-.172.172-.096.117v-.675a115.062 115.062 0 0 1-.037-1.218c0-.12-.035-.168-.13-.193-.093-.025-.14.029-.2.128a6.98 6.98 0 0 0-.216.39c-.067.131-.141.255-.216.38-.074.126-.155.248-.234.367-.035.052-.07.11-.108.16l-.075.115-.023-.136c-.09-.53-.14-1.052-.188-1.555l-.016-.175c-.02-.218-.04-.436-.064-.645l-.075-.655c-.037-.327-.075-.643-.108-.966-.024-.23-.043-.459-.063-.689-.017-.195-.033-.39-.052-.585v-.012a2.055 2.055 0 0 0-.078-.45c-.012-.036-.06-.07-.108-.109l-.033-.025-.038.036a.336.336 0 0 0-.108.131c-.083.37-.145.751-.197 1.08a188.618 188.618 0 0 0-.246 1.66 242.94 242.94 0 0 1-.323 2.057c-.012.073-.03.144-.05.226-.01.04-.021.083-.032.133l-.035.149-.067-.139-.216-.463c-.198-.416-.386-.808-.568-1.208-.026-.058-.087-.15-.19-.11a.269.269 0 0 0-.13.18c0 .17.007.344.018.513l.016.274c.015.4.027.801.035 1.14a.32.32 0 0 1-.016.098c0 .013-.007.026-.01.039l-.024.109-.31-.382a45.65 45.65 0 0 1-.524-.654c-.086-.11-.168-.218-.25-.327-.084-.11-.163-.218-.246-.32-.46-.58-.956-1.2-1.466-1.836a3.65 3.65 0 0 0-.403-.436.208.208 0 0 0-.17-.02.228.228 0 0 0-.041.133c.004.098.015.195.034.29l.015.088a650.75 650.75 0 0 0 .499 3.116l.187 1.16c.019.122.034.245.048.369.007.056.014.109.02.17l.012.091-.085-.034a1.042 1.042 0 0 1-.3-.201l-.02-.015-.9-.764-.392-.334-.203-.175c-.192-.166-.39-.337-.593-.495a.25.25 0 0 0-.176.03.17.17 0 0 0-.035.116c.154.366.311.714.469 1.04.14.287.287.578.431.86l.293.583c.064.13.127.263.19.394.062.13.136.288.207.43.1.198.202.393.31.6l.2.382-.109-.025-.063-.012a.295.295 0 0 1-.094-.026c-.588-.328-1.256-.696-1.914-1.067a.207.207 0 0 0-.112-.003Zm2.562 3.41c-.223 0-.33-.14-.44-.318-.272-.442-.566-.88-.85-1.308l-.267-.402-.057-.086a3.143 3.143 0 0 1-.28-.477l-.064-.144.518.277.831.445.21.116c.139.079.284.16.431.227.06.021.127.018.185-.01a.274.274 0 0 0 .029-.218 18.4 18.4 0 0 0-.446-.919l-.055-.109a61.054 61.054 0 0 0-.294-.575 55.38 55.38 0 0 1-.37-.725c-.088-.176-.173-.358-.256-.535-.06-.127-.119-.254-.18-.38-.05-.109-.107-.206-.158-.308l-.076-.144-.021-.043.119-.085.937.808.268.234c.246.218.5.436.755.644a.231.231 0 0 0 .198.009.261.261 0 0 0 .054-.192 18.746 18.746 0 0 0-.138-.997c-.04-.235-.08-.47-.122-.705l-.108-.615a20.506 20.506 0 0 1-.077-.5c-.021-.147-.043-.295-.068-.444-.025-.148-.054-.327-.082-.484-.028-.157-.06-.34-.086-.51a3.579 3.579 0 0 1-.054-.664v-.15l.2.255.242.305.446.557c.28.35.56.697.837 1.048.16.2.316.402.473.603.253.327.514.654.777.981a.33.33 0 0 0 .228.121.312.312 0 0 0 .114-.218c0-.276-.013-.556-.027-.828-.006-.129-.013-.257-.017-.385V11.95l.1.175.062.109c.043.07.082.143.117.218.056.119.108.239.162.359.077.173.157.352.242.524l.015.033c.07.143.12.236.237.218.117-.017.134-.116.157-.267v-.025c.043-.273.083-.545.123-.82a57.816 57.816 0 0 1 .25-1.566c.036-.197.07-.396.103-.595.021-.133.04-.267.057-.398.014-.11.028-.21.044-.313.01-.1.048-.194.108-.273l.082-.11.041.407c.02.206.041.412.064.618l.06.545c.028.262.058.524.085.785a123.19 123.19 0 0 1 .118 1.239l.023.23c.029.305.06.62.101.929a.217.217 0 0 0 .128.118.18.18 0 0 0 .131-.062c.174-.27.345-.551.51-.823.059-.099.12-.197.18-.296.04-.075.1-.137.172-.179l.081-.046v1.061c-.003.203.006.407.025.609a.3.3 0 0 0 .158.17.215.215 0 0 0 .149-.068c.27-.345.54-.7.804-1.043l.49-.643c.264-.34.53-.68.797-1.02l.229-.29a.35.35 0 0 1 .057-.056l.042-.038.13-.121-.107.469-.15.622-.383 1.554-.125.49c-.07.273-.14.545-.205.822l-.179.78c-.058.261-.108.501-.17.75a5.285 5.285 0 0 1-.087.317 5.92 5.92 0 0 0-.107.41.367.367 0 0 0 .027.267.323.323 0 0 0 .248-.02c.34-.18.672-.367 1.024-.564l.373-.21.14-.08-.239.546a88.3 88.3 0 0 0-.394.898c-.073.17-.221.17-.329.17h-.082c-.352.046-.698.077-1.065.11l-.415.037h-.064l.216-2.132.022-.205c.019-.153.037-.31.042-.466a.353.353 0 0 0-.047-.17.315.315 0 0 0-.234.05c-.188.187-.37.388-.546.582-.093.104-.187.206-.282.307-.147.158-.297.314-.453.478l-.29.302-.107-.496c-.063-.293-.123-.574-.18-.857-.03-.145-.057-.29-.084-.437-.032-.176-.066-.36-.108-.537-.046-.218-.158-.207-.195-.204a.22.22 0 0 0-.143.103.6.6 0 0 0-.037.205c0 .027 0 .053-.007.08l-.044.435-.06.573a.144.144 0 0 1-.034.073c0 .006-.01.013-.014.02l-.039.065-.048-.058-.149-.18a13.408 13.408 0 0 0-.397-.47.214.214 0 0 0-.152-.069c-.088.008-.129.06-.122.157.014.195.02.404.023.661a1.327 1.327 0 0 1-.019.19c-.005.037-.012.08-.018.132l-.017.13-.08-.11-.154-.197c-.099-.126-.188-.24-.276-.357l-.35-.475c-.18-.243-.359-.486-.54-.727v-.007c-.075-.1-.123-.153-.233-.109-.11.045-.124.132-.108.252.027.227.06.457.093.68.027.19.055.38.078.569.038.295.07.595.103.885l.041.373.047.443-.273-.173c-.13-.081-.252-.157-.372-.237-.12-.08-.253-.171-.38-.258l-.354-.24a.157.157 0 0 0-.158.008.095.095 0 0 0-.052.087c.029.214.07.426.126.635l.022.093c.063.266.13.53.2.805l.107.425h-.061c-.127.013-.25.022-.372.032a6.327 6.327 0 0 0-.797.093.651.651 0 0 1-.138.029Zm-1.727-2.483c.06.109.129.21.197.31l.057.087.268.4c.284.426.578.867.851 1.31.13.21.216.304.465.252a6.63 6.63 0 0 1 .81-.096c.1-.007.203-.015.307-.025l-.077-.302c-.069-.273-.136-.545-.2-.806l-.02-.092c-.057-.214-.1-.43-.13-.649a.2.2 0 0 1 .108-.19.258.258 0 0 1 .274-.007l.355.24a19.482 19.482 0 0 0 .748.493l.086.054-.025-.218-.041-.373c-.031-.29-.064-.589-.101-.883-.024-.19-.052-.379-.08-.567a24.02 24.02 0 0 1-.092-.683c-.016-.129-.01-.286.174-.365.183-.08.291.044.362.14l.007.008c.183.241.362.485.54.728l.349.475a15.728 15.728 0 0 0 .35.452v-.007c.011-.057.017-.114.02-.172 0-.255-.01-.463-.024-.654a.236.236 0 0 1 .216-.274.322.322 0 0 1 .242.11c.138.153.27.316.4.473l.097.119.058-.552.044-.436c0-.024 0-.05.005-.074a.706.706 0 0 1 .048-.246.326.326 0 0 1 .232-.164c.158-.012.266.091.31.29.037.18.07.363.107.545.027.145.054.29.083.436.058.282.118.565.18.856l.063.297.15-.156c.156-.163.305-.319.452-.476.094-.101.187-.204.28-.306.177-.195.36-.397.55-.587a.424.424 0 0 1 .336-.08c.09.017.133.208.13.283-.007.16-.026.32-.043.474a6.114 6.114 0 0 0-.022.204l-.2 1.985.348-.032c.366-.031.712-.06 1.061-.109h.095c.116 0 .189-.005.232-.109.127-.295.258-.59.393-.897l.108-.248-.232.13c-.353.198-.685.386-1.026.565-.1.052-.293.08-.373 0-.08-.08-.077-.278-.059-.37.028-.142.07-.282.108-.418.03-.102.06-.208.084-.313.06-.248.116-.498.172-.747.056-.25.116-.523.178-.782.066-.276.136-.546.206-.825l.124-.49.383-1.552.15-.623.024-.099-.181.23c-.266.34-.532.677-.796 1.019l-.489.654c-.262.343-.533.699-.804 1.044a.294.294 0 0 1-.28.1.393.393 0 0 1-.215-.256 5.447 5.447 0 0 1-.026-.621v-.854a.547.547 0 0 0-.052.074l-.18.296c-.165.271-.335.553-.51.825a.276.276 0 0 1-.252.11.311.311 0 0 1-.205-.209c-.043-.31-.073-.626-.102-.932l-.018-.231-.048-.506a56.562 56.562 0 0 0-.071-.733c-.026-.262-.055-.522-.084-.784l-.06-.545a88.22 88.22 0 0 1-.063-.619l-.01-.081a23.303 23.303 0 0 0-.055.369 12.447 12.447 0 0 1-.164 1 32.35 32.35 0 0 0-.123.726c-.044.279-.085.557-.128.836-.042.279-.08.545-.123.82v.024c-.021.14-.05.327-.249.358-.198.032-.286-.151-.348-.28l-.015-.031a15.16 15.16 0 0 1-.243-.53c-.053-.12-.108-.238-.161-.356a1.934 1.934 0 0 0-.078-.146v.196c0 .128.011.257.017.384.014.274.029.556.027.835 0 .11-.086.296-.193.327-.107.032-.27-.07-.34-.156-.264-.328-.525-.66-.779-.982-.156-.2-.313-.402-.471-.602-.277-.35-.556-.7-.838-1.048l-.445-.557a32.86 32.86 0 0 1-.242-.306l-.01-.013c.006.163.023.326.05.487l.086.508c.03.17.057.327.083.486.026.16.046.297.068.447.024.165.049.327.076.496.034.205.07.41.108.615.04.235.083.47.12.706.045.274.1.636.14 1.002a.35.35 0 0 1-.107.296.33.33 0 0 1-.324-.015c-.258-.21-.514-.437-.755-.647l-.272-.237-.806-.695.012.025.16.311.18.381c.083.176.167.358.255.533.121.242.245.483.37.724.099.192.197.383.294.575l.055.11c.152.3.31.61.448.924a.383.383 0 0 1-.042.333c-.059.077-.232.081-.314.044-.15-.069-.297-.151-.438-.231l-.208-.117-.83-.445-.234-.127ZM42 30.83c0 .442-.312.698-.902.701-1.6.009-3.055.484-4.438 1.29-3.57 2.07-7.148 2.04-10.727-.014a10.884 10.884 0 0 0-1.717-.803 9.185 9.185 0 0 0-.97-.29c-2.16-.516-4.317-.17-6.465 1.06l-.013.007c-.863.503-1.783.9-2.74 1.183a9.617 9.617 0 0 1-3.333.372 9.337 9.337 0 0 1-1.206-.16 10.69 10.69 0 0 1-2.497-.83 13.084 13.084 0 0 1-1.128-.598 9.103 9.103 0 0 0-.72-.386 8.039 8.039 0 0 0-3.535-.823c-.406 0-.734-.11-.958-.46v-.49c.233-.373.576-.477.996-.465 1.596.03 3.16.449 4.562 1.22.108.056.206.115.309.176.164.099.324.191.49.278.307.165.614.31.92.436.74.316 1.517.53 2.313.638a8.25 8.25 0 0 0 2.196-.009c1.231-.17 2.466-.615 3.709-1.327 2.772-1.59 5.593-1.892 8.385-.91.299.104.598.223.896.358.364.163.727.35 1.089.557 3.223 1.847 6.401 1.897 9.593-.008a9.8 9.8 0 0 1 4.868-1.407h.12c.578.01.9.261.903.704Z"/><path d="M32.639 15.14c-.236-.185-.446-.073-.648.1-1.599 1.356-3.206 2.702-4.802 4.061a.813.813 0 0 1-.684.218c-1.403-.167-2.8-.302-4.198-.465a2.928 2.928 0 0 0-2.421.752c-.324.292-.679.557-1.002.854a.5.5 0 0 1-.524.116c-.822-.218-1.65-.407-2.472-.621-1.027-.267-1.943-.071-2.747.637-.374.327-.755.644-1.159.981-1.294-1.246-1.321-1.25-2.86-.318l-1.09-1.316c-.388-.472-.776-.942-1.166-1.412-.18-.218-.412-.298-.638-.109-.227.19-.216.444-.018.678.748.902 1.493 1.805 2.277 2.754-.147.124-.285.233-.415.352-.419.384-.594.855-.475 1.423.055.264.216.422.488.382a.379.379 0 0 0 .297-.164.39.39 0 0 0 .052-.338c-.067-.339.075-.556.324-.754.41-.328.803-.674 1.204-1.011.457-.383.689-.363 1.066.09l.267.326-.306.259c-.783.66-1.56 1.326-2.349 1.978-.755.627-.996 1.41-.755 2.362.4 1.59.79 3.182 1.187 4.774.033.128.058.258.07.31l-1.213.207-1.592.275-.041-.109.71-.617.755-.632c.412-.348.492-.57.292-.813s-.424-.206-.84.146l-1.002.844-.815.693a.733.733 0 0 0-.252.327c.243.116.484.245.721.386.376.222.751.422 1.128.597.12-.026.237-.063.35-.109a3.02 3.02 0 0 1 1.78-.194c.216.046.3.16.38.369.12.312.117.545-.013.763.398.08.801.133 1.206.16l1.742-1.468c6.187-5.213 12.37-10.427 18.548-15.642.066-.05.135-.095.208-.135-.193.873-.394 1.717-.561 2.568a.969.969 0 0 1-.354.604 4779.34 4779.34 0 0 0-9.173 7.73c-.101.087-.251.17-.278.279-.042.17-.066.422.027.525.093.104.342.1.516.082.101-.011.192-.14.286-.218l6.54-5.517 2.178-1.838c-.006.981-.043 1.913-.008 2.835.04 1.038-.331 1.845-1.116 2.508l-4.723 3.983-1.286 1.085c.329.08.653.177.971.291l1.208-1.017a1670.09 1670.09 0 0 1 4.327-3.64c1.042-.873 1.521-1.94 1.466-3.308-.108-2.623.177-5.192 1.203-7.633.085-.203.177-.403.275-.6.12-.239.186-.476-.053-.666ZM8.729 26.82c-.19-.667-.031-1.175.511-1.62 1.329-1.09 2.678-2.158 3.928-3.332.952-.894 1.928-1.185 3.147-.726.467.175.971.25 1.501.382l-4.73 3.991c-.672-.608-.673-.974-.017-1.526s1.323-1.115 1.983-1.673c.348-.294.42-.545.227-.763-.193-.218-.424-.186-.755.096-.635.533-1.268 1.066-1.9 1.601-1.109.935-1.18 1.613-.293 2.776.018.03.034.06.049.091l-3.16 2.655c-.168-.677-.31-1.32-.491-1.951Zm17.11-6.393c-.604.513-1.247.982-1.804 1.546-.528.53-1.068.67-1.786.495-1.233-.301-2.3.08-3.265.905-2.715 2.32-5.454 4.611-8.182 6.914a1.78 1.78 0 0 0-.313.305c-.173.244-.052.62.232.629.324.007.462.2.634.398a.393.393 0 0 0 .279.162.386.386 0 0 0 .304-.104c.202-.163.21-.376.066-.587-.094-.14-.2-.27-.304-.413l1.853-1.562c.296.208.478.763.923.404.475-.387-.073-.67-.216-.993l1.86-1.57c.292.224.466.782.917.41.451-.37-.07-.672-.216-.997l1.828-1.54c.296.218.482.773.927.396.464-.391-.09-.67-.224-.981.819-.924 1.964-1.254 2.949-.856l-11.32 9.549-.588.494c-.026-.071-.046-.11-.057-.158a47.111 47.111 0 0 1-.098-.398c-.242-.972-.478-1.945-.732-2.913-.057-.218.043-.312.178-.425 3.606-3.04 7.213-6.08 10.82-9.124a2.077 2.077 0 0 1 1.644-.503c1.158.133 2.317.25 3.474.377.089.01.175.036.274.056a.606.606 0 0 1-.057.084Zm-8.822 11.014c-.067.053-.132.109-.197.164l-2.792 2.359a12.41 12.41 0 0 0 2.737-1.188l.013-.007c.265-.223.529-.445.792-.669.274-.232.324-.488.155-.694-.168-.206-.428-.189-.709.036v-.001Z"/><path stroke="#fff" d="M9.5 33.5c-1.2 0-4.167-1.667-5.5-2.5 12.8 18.4 27.333 8.333 33 1 0 0-8.5 2.5-11.5 0s-8-.5-9.5.5-5 1-6.5 1Z"/></g><circle cx="20.5" cy="21" r="20" stroke="#fff"/></g><defs><clipPath id="a"><path fill="#fff" d="M0 .5h42v41H0z"/></clipPath></defs></svg>